<?xml version="1.0" encoding="utf-8"?>
<!-- Generator: Adobe Illustrator 19.0.0, SVG Export Plug-In . SVG Version: 6.00 Build 0)  -->
<svg version="1.1" id="Layer_1" xmlns="http://www.w3.org/2000/svg" xmlns:xlink="http://www.w3.org/1999/xlink" x="0px" y="0px"
	 viewBox="-192 664.5 1114.6 172.5" style="enable-background:new -192 664.5 1114.6 172.5;" xml:space="preserve">
<style type="text/css">
	.st0{fill:#34FB8B;}
	.st1{fill:#05E270;}
	.st2{fill:#06AA6C;}
	.st3{stroke:#000000;stroke-width:2;stroke-miterlimit:10;}
</style>
<g>
	<path d="M111.3,723.1c-2.6-2.6-3.9-6-3.9-10.1c0-4.1,1.3-7.4,3.9-10.1c2.6-2.6,5.9-3.9,10-3.9c4.1,0,7.4,1.3,10,3.9
		c2.6,2.6,3.9,6,3.9,10.1c0,4.1-1.3,7.4-3.9,10.1c-2.6,2.6-5.9,4-10,4C117.3,727,113.9,725.7,111.3,723.1z M134.3,730.1v82.5H108
		v-82.5H134.3z"/>
	<path d="M183.3,732.9c4.5-2.6,9.8-3.9,15.7-4v23.8c-0.8-0.1-2-0.1-3.7-0.1c-6.5,0-11.9,1.6-16,4.7c-4.1,3.2-6.5,7.5-7.1,12.9v42.4
		h-26.5v-82.5h26.5V744C175.1,739.2,178.8,735.5,183.3,732.9z"/>
	<path d="M445.6,812.7l-12.7-52.3l-12.8,52.3h-20.6l-23.6-82.5H397l13.4,57.1l13-57.1h19.8l13.3,57.1l13.1-57.1h20.3l-23.6,82.5
		H445.6z"/>
	<path d="M545,731.1c5.8,1.6,11.3,3.9,16.4,6.9l-9,17.1c-10.2-5.5-18.9-8.3-26-8.3c-2.4,0-4.4,0.5-5.9,1.5c-1.5,1-2.2,2.4-2.2,4.2
		c0,1.9,1.1,3.5,3.4,4.7c2.2,1.2,5.9,2.5,11,3.9c5.8,1.6,10.7,3.3,14.6,5c3.9,1.7,7.2,4.2,10.1,7.6c2.8,3.4,4.3,7.8,4.3,13.3
		c0,8.3-3.2,14.7-9.6,19.4c-6.4,4.7-14.8,7-25.1,7c-6.9,0-13.6-1-20-3c-6.4-2-12.1-4.9-17-8.6l8.4-16.9c4.6,3.3,9.5,5.8,14.6,7.6
		c5.2,1.8,10.1,2.7,14.7,2.7c2.7,0,4.9-0.5,6.5-1.5c1.6-1,2.4-2.4,2.4-4.2c0-2.1-1.2-3.8-3.5-5c-2.3-1.2-6-2.6-11-4
		c-5.7-1.6-10.5-3.3-14.2-5c-3.8-1.7-7-4.2-9.7-7.5c-2.7-3.3-4.1-7.7-4.1-13.1c0-8.3,3.1-14.7,9.3-19.4c6.2-4.6,14.3-6.9,24.2-6.9
		C533.3,728.7,539.1,729.5,545,731.1z"/>
	<path d="M336.7,729.5c-23.1,0-41.9,18.8-41.9,41.9c0,23.1,18.8,41.9,41.9,41.9c23.1,0,41.9-18.8,41.9-41.9
		C378.6,748.3,359.8,729.5,336.7,729.5z M337.8,792.1c-11.4,0-20.7-9.3-20.7-20.7c0-11.4,9.3-20.7,20.7-20.7
		c11.4,0,20.7,9.3,20.7,20.7C358.5,782.8,349.2,792.1,337.8,792.1z"/>
	<path d="M263.5,698.9v36.6c-6.3-3.8-13.7-6-21.7-6c-23.1,0-41.9,18.8-41.9,41.9s18.8,41.9,41.9,41.9c7.9,0,15.4-2.2,21.7-6v4.2
		h26.2V698.9H263.5z M242.9,792.1c-11.4,0-20.7-9.3-20.7-20.7s9.3-20.7,20.7-20.7c10.9,0,19.8,8.5,20.6,19.2v3
		C262.7,783.6,253.8,792.1,242.9,792.1z"/>
</g>
<g>
	<path class="st0" d="M-17.4,756.5c1.1-14.4-1.9-29.3-9.7-42.7c-5.7-9.9-13.3-17.9-22.1-24c2.7,6.7,4.4,13.5,5.1,20.4L-17.4,756.5z"
		/>
	<path class="st0" d="M-49.3,746.2l23.1,40.1c2.6-4.8,4.7-9.9,6.2-15.2l-24.4-42.4C-45.4,734.7-47,740.6-49.3,746.2z"/>
	<path class="st0" d="M-41.2,805.4c3.4-3.1,6.5-6.5,9.2-10l-22.4-38.9c-2.4,4-5.3,7.8-8.4,11.3L-41.2,805.4z"/>
	<path class="st0" d="M-48.8,811.5l-21.3-36.9c-3.3,2.7-6.8,5.3-10.6,7.5L-60,818c1.3-0.6,2.5-1.2,3.8-1.9l3.9-2.2
		C-51.2,813.1-50,812.3-48.8,811.5z"/>
	<path class="st0" d="M-82.4,824.4c4.5-0.5,8.9-1.5,13.3-2.9l-20.3-35.2c-4.1,1.7-8.4,3.1-12.6,4L-82.4,824.4z"/>
	<path class="st0" d="M-109.4,822.6c5.3,1.3,10.7,2.1,16.2,2.3l-19-33.1c-5.1,0.4-10.2,0.2-15.2-0.4L-109.4,822.6z"/>
	<path class="st0" d="M-155.6,787.8c7.8,13.5,19.1,23.6,32.1,29.8l-16.7-29c-7-2.2-13.6-5.4-19.7-9.5
		C-158.6,782-157.2,784.9-155.6,787.8z"/>
	<path class="st1" d="M-160.6,778.5c0.3,0.2,0.5,0.4,0.8,0.6c-0.1-0.2-0.2-0.4-0.2-0.6C-160.2,778.5-160.4,778.5-160.6,778.5z"/>
	<path class="st1" d="M-44,710.2c-0.7-6.9-2.4-13.8-5.1-20.4c-3.2-2.2-6.5-4.2-10-5.8L-44,710.2z"/>
	<path class="st1" d="M-89.4,676.6l40.1,69.6c2.3-5.6,4-11.5,4.9-17.5l-28.7-49.8C-78.5,677.5-83.9,676.8-89.4,676.6z"/>
	<path class="st1" d="M-87.8,724.6l24.8,43.1c3.2-3.5,6-7.3,8.4-11.3l-30.4-52.8C-84.9,710.8-85.8,717.8-87.8,724.6z"/>
	<path class="st1" d="M-92.2,736.3c-2.1,4.4-4.7,8.7-7.7,12.7l19.1,33.1c3.8-2.2,7.4-4.7,10.6-7.5L-92.2,736.3z"/>
	<path class="st1" d="M-116.6,765.1l14.5,25.3c4.3-0.9,8.5-2.3,12.6-4l-17.1-29.7C-109.5,759.7-112.9,762.5-116.6,765.1z"/>
	<path class="st1" d="M-136.8,775.1l9.4,16.3c5,0.7,10.1,0.8,15.2,0.4l-12.5-21.8C-128.7,772.1-132.7,773.8-136.8,775.1z"/>
	<path class="st1" d="M-160.1,778.5c0.1,0.2,0.2,0.4,0.2,0.6c6.1,4.2,12.7,7.3,19.7,9.5l-6.4-11.1
		C-151,778.3-155.6,778.6-160.1,778.5z"/>
	<path class="st2" d="M-84.9,703.6l-15.3-26.5c-4.5,0.5-8.9,1.5-13.3,2.9l25.7,44.6C-85.8,717.8-84.9,710.8-84.9,703.6z"/>
	<path class="st2" d="M-128.3,686.5c-1.9,1.1-3.7,2.3-5.5,3.5l34,59c3-4,5.5-8.2,7.7-12.7l-30.4-52.8
		C-124.5,684.4-126.4,685.4-128.3,686.5z"/>
	<path class="st2" d="M-150.5,706.1l34,59c3.7-2.6,7-5.4,10.1-8.5l-34.9-60.6C-144.8,699.1-147.8,702.5-150.5,706.1z"/>
	<path class="st2" d="M-162.6,730.4l25.8,44.7c4.1-1.3,8.1-3,12.1-5l-31.6-54.9C-159,720-161.1,725.1-162.6,730.4z"/>
	<path class="st2" d="M-160.1,778.5c4.5,0.1,9-0.3,13.5-1.1l-18.7-32.4C-166.1,756.2-164.5,767.7-160.1,778.5z"/>
</g>
<g>
	<path d="M42.2,721.7v26.2H95v22.7H42.2v41.7h-30V699h87.4v22.7H42.2z"/>
</g>
<path class="st3" d="M609.9,732.5c3.9,1.1,7.3,2.5,10,4.3l-1.1,1.9c-2.6-1.7-5.8-3-9.5-4c-3.7-1-7.3-1.5-11-1.5
	c-7.1,0-12.8,1.4-17.1,4.3c-4.3,2.9-6.4,6.7-6.4,11.4c0,4.1,1,7.5,3.1,10s4.7,4.5,7.7,5.8s7.2,2.8,12.5,4.5c5.6,1.6,10,3.2,13.4,4.7
	c3.3,1.5,6.2,3.7,8.5,6.6c2.3,2.9,3.4,6.8,3.4,11.6c0,6.1-2.5,10.9-7.5,14.5s-11.7,5.4-20.1,5.4c-5.1,0-10.2-1-15.1-3.1
	c-5-2.1-9.2-4.8-12.6-8.3l1.6-1.6c3.1,3.3,7,5.8,11.7,7.8c4.7,1.9,9.5,2.9,14.4,2.9c7.7,0,13.8-1.6,18.4-4.8
	c4.6-3.2,6.9-7.5,6.9-12.8c0-4.3-1.1-7.7-3.2-10.3c-2.1-2.6-4.8-4.6-7.9-5.9c-3.1-1.4-7.3-2.9-12.7-4.5c-5.6-1.7-10-3.3-13.2-4.8
	c-3.3-1.5-6-3.6-8.3-6.5c-2.3-2.9-3.4-6.6-3.4-11.3c0-5.4,2.4-9.8,7.1-13.1c4.7-3.3,11-5,18.8-5C602.1,730.9,606,731.4,609.9,732.5z
	"/>
<path class="st3" d="M681.4,737.8c5.4,4.6,8.1,11.1,8.1,19.5c0,8.5-2.7,15.1-8.1,19.9c-5.4,4.7-13,7.1-22.9,7.1h-25.2v27.9H631
	v-81.2h27.6C668.4,730.9,676,733.2,681.4,737.8z M633.3,781.9h25.2c9.2,0,16.2-2.2,21.2-6.5c5-4.3,7.5-10.4,7.5-18.2
	c0-7.7-2.5-13.6-7.5-17.8c-5-4.2-12-6.3-21.2-6.3h-25.2V781.9z"/>
<path class="st3" d="M692.7,787.4l-11.2,24.7h-2.8l37.2-81.2h2.6l37.6,81.2h-2.7L742,787.4H692.7z M717.1,733.6l-23.3,51.5h47.1
	L717.1,733.6z"/>
<path class="st3" d="M807,733.6c4.8,1.8,9,4.4,12.8,7.7l-1.5,1.5c-3.6-3.1-7.6-5.5-12.1-7.2c-4.5-1.7-9.3-2.6-14.3-2.6
	c-7.1,0-13.7,1.7-19.7,5.2c-6.1,3.5-10.9,8.1-14.4,14c-3.6,5.9-5.4,12.3-5.4,19.1s1.8,13.3,5.4,19.2s8.4,10.6,14.4,14.1
	c6,3.4,12.6,5.2,19.8,5.2c5,0,9.7-0.9,14.2-2.6c4.5-1.7,8.6-4.2,12.2-7.3l1.6,1.5c-3.8,3.3-8.1,5.9-12.9,7.8
	c-4.8,1.9-9.8,2.8-15.1,2.8c-7.5,0-14.5-1.8-20.9-5.5s-11.5-8.6-15.2-14.9c-3.8-6.2-5.6-13-5.6-20.3c0-7.3,1.9-14.1,5.6-20.3
	c3.8-6.2,8.8-11.2,15.2-14.8c6.4-3.6,13.4-5.5,20.9-5.5C797.2,730.9,802.2,731.8,807,733.6z"/>
<path class="st3" d="M831.5,733.2v35.9h43.1v2.3h-43.1v38.4h50.1v2.3h-52.4v-81.2h50.8v2.3H831.5z"/>
</svg>
